<svg xmlns="http://www.w3.org/2000/svg" width="16" height="16" viewBox="0 0 16 16">
    <g fill="none" fill-rule="evenodd">
        <g stroke="#848E9A" stroke-width=".98">
            <g>
                <g>
                    <g>
                        <path d="M13.923 14.553l-4.078-4.085c1.04-1.005 1.684-2.39 1.684-3.917C11.53 3.49 8.944 1 5.765 1 2.585 1 0 3.49 0 6.55c0 3.062 2.586 5.551 5.765 5.551 1.395 0 2.676-.48 3.674-1.277l4.089 4.095c.053.054.125.081.198.081.068 0 .137-.025.19-.074.11-.101.112-.268.007-.373zm-8.158-2.98C2.889 11.573.549 9.32.549 6.55c0-2.77 2.34-5.022 5.216-5.022 2.876 0 5.215 2.252 5.215 5.022 0 2.769-2.34 5.022-5.215 5.022z" transform="translate(-41.000000, -126.000000) translate(25.000000, 111.000000) translate(16.755418, 15.000000)"/>
                    </g>
                </g>
            </g>
        </g>
    </g>
</svg>
